#!OML:ASF E:\acrobat2\Project_11_07_03\Capture day 1\Session 1\Acrobat.ASF
:FULLY-SPECIFIED
:DEGREES
98
root 8.49105 17.9825 -27.7081 11.4551 -86.5 -4.2312
lowerback -6.29541 0.682208 0.931915
upperback -5.54556 0.697062 -0.927823
thorax -2.16572 0.233477 -1.44489
lowerneck -0.98038 -1.91066 -0.574034
upperneck -2.19613 -2.52189 2.63785
head -0.464871 -1.27721 0.900747
rclavicle 2.80535e-014 -1.19271e-014
rhumerus -6.6901 -28.1875 -1.27658
rradius 20.4211
rwrist 18.9242
rhand -6.76011 -46.1094
rfingers 7.12502
rthumb 19.1015 -75.1914
lclavicle 2.80535e-014 -1.19271e-014
lhumerus 1.27632 13.5278 -1.28438
lradius 20.9652
lwrist 6.73056
lhand -13.9209 -7.55901
lfingers 7.12502
lthumb 12.2054 22.0649
rfemur 6.78759 19.2102 12.3652
rtibia -3.84296
rfoot -30.8622 -31.5924
rtoes 8.37804
lfemur 4.7207 -8.56282 -6.11758
ltibia -3.18749
lfoot -26.527 7.68133
ltoes 33.682
99
root 8.48756 17.9815 -27.7112 13.3217 -86.4852 -6.07497
lowerback -6.35338 0.687416 1.02651
upperback -5.55528 0.699237 -0.892469
thorax -2.14299 0.232032 -1.46095
lowerneck -1.05004 -1.86951 -0.529317
upperneck -2.15816 -2.46852 2.61026
head -0.443471 -1.25002 0.8835
rclavicle 1.00138e-014 -2.5842e-015
rhumerus -6.58684 -28.6805 -1.26609
rradius 20.1766
rwrist 19.4195
rhand -6.6208 -46.1676
rfingers 7.12502
rthumb 19.2355 -75.2363
lclavicle 1.00138e-014 -2.5842e-015
lhumerus 1.36703 13.384 -1.37198
lradius 20.9412
lwrist 6.80479
lhand -13.9302 -7.64374
lfingers 7.12502
lthumb 12.1964 21.9807
rfemur 6.80365 19.4301 12.5985
rtibia -3.82677
rfoot -31.1073 -31.6989
rtoes 8.30579
lfemur 4.60132 -7.76272 -5.79883
ltibia -3.0294
lfoot -25.7374 7.44823
ltoes 33.2092
100
root 8.48415 17.9815 -27.7121 13.1227 -86.5041 -5.84907
lowerback -6.3983 0.686801 1.02567
upperback -5.57203 0.696794 -0.892427
thorax -2.13559 0.230235 -1.46023
lowerneck -0.987291 -1.86198 -0.721595
upperneck -2.15396 -2.45486 2.80749
head -0.448435 -1.24318 0.977693
rclavicle -3.35449e-015 4.96962e-015
rhumerus -6.64031 -28.4573 -1.20753
rradius 20.1617
rwrist 19.2625
rhand -6.46598 -46.2871
rfingers 7.12502
rthumb 19.3844 -75.3409
lclavicle -3.35449e-015 4.96962e-015
lhumerus 1.40976 13.155 -1.47228
lradius 20.9871
lwrist 7.01433
lhand -14.1602 -7.84774
lfingers 7.12502
lthumb 11.9746 21.7897
rfemur 6.7866 19.543 12.6081
rtibia -3.80394
rfoot -31.179 -31.7515
rtoes 7.71642
lfemur 4.51217 -7.31354 -5.72763
ltibia -2.90472
lfoot -25.4223 7.31067
ltoes 33.0806
101
root 8.4795 17.9809 -27.7115 12.3203 -86.5689 -5.02903
lowerback -6.42602 0.693732 1.00456
upperback -5.59835 0.704714 -0.912053
thorax -2.14734 0.233515 -1.46814
lowerneck -0.905751 -1.84873 -0.918103
upperneck -2.18246 -2.43293 3.04461
head -0.466319 -1.233 1.08606
rclavicle 1.66979e-014 3.18055e-015
rhumerus -6.78213 -27.9443 -1.15036
rradius 20.2782
rwrist 18.8826
rhand -6.32802 -46.4131
rfingers 7.12502
rthumb 19.517 -75.4536
lclavicle 1.66979e-014 3.18055e-015
lhumerus 1.44065 13.045 -1.54789
lradius 21.0212
lwrist 7.04495
lhand -14.3606 -8.00338
lfingers 7.12502
lthumb 11.7814 21.6453
rfemur 6.7563 19.5145 12.5154
rtibia -3.78816
rfoot -31.0334 -31.7419
rtoes 7.38475
lfemur 4.54766 -7.56475 -5.84154
ltibia -2.91815
lfoot -25.8251 7.22817
ltoes 33.6927
102
root 8.47369 17.9803 -27.7105 12.8145 -86.638 -5.52747
lowerback -6.45183 0.700035 1.04011
upperback -5.6092 0.710777 -0.892647
thorax -2.14395 0.235409 -1.46764
lowerneck -0.941876 -1.81378 -0.954837
upperneck -2.12585 -2.38672 3.079
head -0.44316 -1.20905 1.10208
rclavicle -4.67144e-015 -6.55989e-015
rhumerus -7.08152 -25.6491 -0.97037
rradius 20.6551
rwrist 16.7609
rhand -6.33567 -46.7536
rfingers 7.12502
rthumb 19.5096 -75.7948
lclavicle -4.67144e-015 -6.55989e-015
lhumerus 1.34399 12.4569 -1.73829
lradius 21.1026
lwrist 7.47429
lhand -14.0779 -7.66986
lfingers 7.12502
lthumb 12.054 21.963
rfemur 6.75991 19.4878 12.5301
rtibia -3.79071
rfoot -30.9452 -31.672
rtoes 7.65446
lfemur 4.69546 -8.35146 -5.99105
ltibia -3.04982
lfoot -26.604 7.36488
ltoes 34.3754
103
root 8.4663 17.9799 -27.7095 11.8442 -86.7338 -4.57674
lowerback -6.48435 0.689639 0.970319
upperback -5.60639 0.699532 -0.870802
thorax -2.12433 0.232349 -1.40616
lowerneck -1.03765 -1.75913 -0.915815
upperneck -1.96226 -2.31787 2.94647
head -0.380465 -1.17183 1.05155
rclavicle 1.67228e-014 1.78906e-015
rhumerus -7.00261 -25.384 -0.975302
rradius 20.6597
rwrist 16.645
rhand -6.25276 -46.7139
rfingers 7.12502
rthumb 19.5894 -75.7469
lclavicle 1.67228e-014 1.78906e-015
lhumerus 1.14924 11.6049 -1.9889
lradius 21.2209
lwrist 8.13972
lhand -13.7869 -7.37333
lfingers 7.12502
lthumb 12.3346 22.2428
rfemur 6.77082 19.4454 12.4159
rtibia -3.79084
rfoot -30.949 -31.5327
rtoes 8.10249
lfemur 4.89127 -9.22207 -6.2923
ltibia -3.21761
lfoot -27.4955 7.50712
ltoes 35.4444
